<svg xmlns="http://www.w3.org/2000/svg" viewBox="0 0 1024 1024">
  <path fill="#e6162d" d="M1024 512c0 282.77-229.23 512-512 512S0 794.77 0 512 229.23 0 512 0s512 229.23 512 512z"/>
  <path fill="#fff" d="M784.81 484.58c-4.22-31.42-26.6-56-57.94-63.13-3.66-.82-16.11-2.28-15.63-7.53 1.11-12.06 6.36-23.77 15.11-31.54 13.1-11.66 22.84-28.78 22.84-47.53 0-36.96-27.42-66.9-61.26-66.9-25.5 0-48.42 16.51-57.44 40.52-1.92 5.12-11.83 5.42-14.88 1.15-20.91-29.35-58.85-48.98-103.61-48.98-63.85 0-115.6 51.75-115.6 115.6 0 16.65 3.53 32.5 9.87 46.99 1.6 3.63-1.6 7.64-5.34 6.64-60.77-16.14-118.52 3.61-155.62 48.96-30.82 37.64-42.53 88.58-29.43 134.42 15.68 54.88 60.1 98.05 116.53 110.15 39.73 8.52 82.35 4.3 120.44-11.85 53.6-22.74 97.47-66.38 123.6-121.78 12.11-25.68 18.23-53.78 18.23-82.68 0-4.52-.16-9.03-.49-13.51-.55-7.44 6.88-12.56 13.91-9.94 13.97 5.2 29.5 8.08 45.68 8.08 67.5 0 122.21-54.71 122.21-122.21.03-31.11-11.53-59.54-30.65-81.18zm-271.72 154.51c-43.5 27.67-96.16 35.62-143.15 20.37-39.71-12.89-69.64-42.33-77.93-81.82-7.5-35.75 3.33-72.24 28.52-95.96 26.28-24.75 64.73-35.1 99.78-25.64 35.53 9.61 63.84 34.91 74.9 70.38 11.2 35.91-.71 74.45-28.84 100.82-12.86 12.04-29.48 21.05-47.53 25.86-1.92.51-3.79-1.84-2.29-3.31 23.5-23.07 35.34-55.64 29.74-88.8-5.74-33.99-29.47-61.03-61.67-70.36-32.06-9.29-65.73-1.04-89.26 21.57-23.01 22.12-33.4 54.1-27.18 85.91 6.3 32.22 28.98 57.65 60.03 67.58 35.61 11.39 74.5 4.71 103.95-17.76 1.48-1.13 3.66.42 2.76 2.06-7.85 14.33-19.16 26.68-32.55 35.62v-6.52zm38.27-142.23c-1.39-16.14-11.77-30.22-26.62-36.85-2.06-.92-2.18-3.79-.18-4.88 15.65-8.52 26.31-25 26.31-43.83 0-27.64-22.41-50.05-50.05-50.05-18.15 0-34.07 9.67-42.82 24.16-1.1 2.22-4.14 2.27-5.32.08-11.23-20.82-33.02-34.93-57.96-34.93-36.5 0-66.08 29.58-66.08 66.08 0 11.08 2.73 21.53 7.6 30.77 1.15 2.18-.32 4.79-2.73 4.88-25.13.92-48.43 11.16-65.62 28.85-18.06 18.59-28.02 43.43-28.02 69.93 0 25.4 9.32 49.33 26.23 67.38 16.7 17.82 39.46 28.52 64.08 30.15 1.54.1 2.66-1.25 2.3-2.74-7.57-31.57.06-64.84 21.36-89.91 21.6-25.41 53.39-38.64 85.73-35.32 30.73 3.16 58.55 20.3 75.87 47.1 1.05 1.63 3.51 1.48 4.36-.25 15.35-31.22 17.96-67.4 8.24-100.8-1.54-5.28 4.22-9.71 9.07-7.24 10.97 5.58 23.47 8.7 36.55 8.7 43.12 0 78.07-35.01 78.07-78.19.01-16.71-5.34-32.22-14.39-44.82-1.26-1.75-3.87-1.3-4.5.83-2.18 7.35-7.15 13.56-14.07 17.43-2.08 1.16-2.07 4.14.02 5.28 14.28 7.79 24.03 22.76 24.03 39.95 0 25.1-20.35 45.45-45.45 45.45-12.78 0-24.33-5.28-32.61-13.79-1.42-1.45-3.86-.53-4.04 1.48z"/>
</svg>